<?xml version="1.0" encoding="UTF-8" standalone="no"?>
<!-- Created with Inkscape (http://www.inkscape.org/) -->

<svg
   width="73.687759mm"
   height="73.687759mm"
   viewBox="0 0 73.687759 73.68776"
   version="1.1"
   id="svg1"
   xml:space="preserve"
   xmlns="http://www.w3.org/2000/svg"
   xmlns:svg="http://www.w3.org/2000/svg"><defs
     id="defs1"><linearGradient
       id="swatch203"><stop
         style="stop-color:#000000;stop-opacity:1;"
         offset="0"
         id="stop203" /></linearGradient></defs><g
     id="layer1"
     transform="translate(175.32274,-312.86658)"><rect
       style="opacity:1;fill:none;fill-opacity:1;stroke:none;stroke-width:0.856591;stroke-linejoin:round;stroke-dasharray:none;stroke-opacity:1;paint-order:normal"
       id="rect278"
       width="73.687759"
       height="73.687759"
       x="-175.32274"
       y="312.86658" /><rect
       style="opacity:1;fill:none;fill-opacity:1;stroke:#ff0000;stroke-width:0.787855;stroke-linejoin:round;stroke-dasharray:none;stroke-opacity:1;paint-order:normal"
       id="rect279"
       width="82.005722"
       height="82.200684"
       x="-179.9339"
       y="308.15799" /><g
       id="g296"
       transform="translate(104.64416,-1.1458572)"><path
         style="fill:#ffffff;fill-opacity:1"
         d="m -243.19336,314.15039 c -0.20198,0.004 -0.60313,0.0567 -0.91406,0.17383 -0.64602,0.24334 -1.36818,0.96129 -1.42383,1.01172 -2.06965,1.87553 -4.82862,4.056 -7.35742,5.81054 -6.54234,4.53921 -12.47295,7.05068 -17.19141,7.56836 -0.41248,0.0453 -1.49585,0.0779 -2.28125,0.86328 -0.7196,0.71907 -0.81457,1.28403 -0.77929,3.01563 0.0957,4.69516 0.7375,9.80269 1.85546,14.89453 0.0578,0.26309 0.14978,0.66228 0.25586,1.10547 -0.6137,0.20041 -0.95106,0.53495 -1.30273,1.02539 -0.30652,0.42744 -0.42598,0.92352 -0.43164,0.94141 -0.4366,1.38019 -2.73249,9.02738 -5.55664,18.50195 -0.51166,1.71657 -0.50709,2.6584 0.41211,3.65625 -0.0535,-0.0581 -0.0856,-0.0884 -0.0957,-0.0957 h -0.002 v 0.002 c 0.0278,0.047 0.52925,0.58473 1.11719,0.81836 0.64133,0.25484 1.39142,0.23928 1.8164,0.24805 1.09788,0.0226 3.46988,0.0205 8.03516,0.0215 l 7.4668,0.002 c 3.88139,5.13784 8.67221,9.52248 14.16992,12.97266 0.48427,0.30394 1.27877,0.875 2.24805,0.875 0.96201,0 1.67549,-0.51353 2.12695,-0.79492 5.57358,-3.47389 10.32095,-7.80729 14.30469,-13.05664 h 7.48828 c 4.13341,0 8.35033,0.008 8.99609,-0.0469 0.0574,-0.005 0.43468,-0.0324 0.82422,-0.19531 0.85205,-0.35599 1.55438,-1.13778 1.76758,-2.10742 0.15276,-0.69524 -0.0296,-1.21961 -0.0352,-1.24219 -0.17244,-0.69687 -1.48736,-5.13118 -2.89648,-9.85156 -0.0469,-0.15714 -2.9053,-9.8242 -3.14649,-10.29492 -0.14197,-0.2773 -0.56051,-1.03147 -1.54296,-1.39454 0.46786,-2.00022 0.89556,-4.17762 1.20507,-6.16992 0.54051,-3.47918 0.88852,-7.35372 0.88868,-10.10351 1e-5,-0.31207 0.0207,-0.75634 -0.0508,-1.21094 -0.33507,-2.13183 -2.30294,-2.30706 -2.61718,-2.33594 -1.42716,-0.13111 -2.92792,-0.43209 -4.61914,-0.9414 -4.75985,-1.43343 -10.61431,-4.6771 -16.51954,-9.30079 -1.2864,-1.00722 -2.84321,-2.31427 -3.83984,-3.2207 -0.0478,-0.0435 -0.7227,-0.71711 -1.33203,-0.95898 l -0.008,-0.002 -0.006,-0.004 c -0.41443,-0.16147 -0.86756,-0.18273 -1.0293,-0.17969 z"
         id="path295" /><path
         style="fill:#e6e6e6;fill-opacity:1;stroke-width:0.763471"
         d="m -245.60384,382.72491 c -3.97894,-2.69604 -8.6174,-7.0124 -11.20901,-10.4306 l -1.10893,-1.46264 -9.39725,-19.914 c -0.0277,-0.0586 -0.176,-0.81475 -0.39113,-1.66652 -0.52371,-2.0736 -1.12997,-5.299 -1.50776,-8.02154 -0.38219,-2.75429 -0.76326,-8.24706 -0.6014,-8.66885 0.0701,-0.18267 0.36461,-0.31141 0.71241,-0.31141 0.3261,0 1.28597,-0.14316 2.13305,-0.31812 6.23722,-1.28834 14.06107,-5.63105 21.48786,-11.92708 1.7743,-1.50416 2.07232,-1.68726 2.36986,-1.45605 0.18717,0.14545 0.93117,0.77982 1.65334,1.40969 0.72215,0.62988 2.5094,2.03967 3.97167,3.13286 6.57254,4.91368 12.96726,8.04469 18.24852,8.9349 l 1.50764,0.25192 0.64297,0.12081 c 0.35977,0.0675 -0.28202,7.04006 -0.74336,10.04537 -0.37285,2.42897 -1.37408,7.49544 -1.71885,8.23835 l -9.35098,20.14967 -1.37788,1.76752 c -1.79775,2.30611 -5.55814,6.0656 -7.8382,7.83632 -2.31352,1.79671 -4.93929,3.52701 -5.34743,3.52377 -0.17443,-0.002 -1.13525,-0.55685 -2.13517,-1.23437 z"
         id="path296" /><path
         style="fill:#000000"
         d="m -244.07265,384.57091 c -5.36496,-3.36687 -10.02075,-7.66589 -13.76212,-12.70753 l -0.48197,-0.64947 -8.72125,-10e-4 c -9.42743,-0.002 -8.84986,0.0105 -9.03276,-0.18804 -0.15591,-0.16925 -0.14397,-0.27049 0.14701,-1.24671 3.34639,-11.22661 5.57306,-18.63163 5.62376,-18.70233 0.14602,-0.20364 0.21276,-0.21409 1.36758,-0.21415 l 1.05874,-6e-5 -0.0873,-0.31239 c -0.18306,-0.6547 -0.69556,-2.74148 -0.88338,-3.59693 -1.08795,-4.95514 -1.70352,-9.89498 -1.79554,-14.40886 -0.0221,-1.08473 -0.0204,-1.13052 0.0462,-1.19707 0.0574,-0.0574 0.19121,-0.0826 0.78753,-0.14801 5.34228,-0.58613 11.58054,-3.30619 18.34279,-7.99798 2.62445,-1.8209 5.44099,-4.04594 7.61256,-6.01384 0.29826,-0.27029 0.57941,-0.50542 0.62478,-0.52251 0.0454,-0.0171 0.11461,-0.0183 0.15388,-0.003 0.0393,0.0156 0.29633,0.23287 0.57123,0.4829 1.06678,0.97023 2.64073,2.29087 3.98072,3.34005 6.08486,4.76433 12.13903,8.16014 17.34124,9.72678 1.82275,0.54892 3.49466,0.88796 5.11123,1.03648 0.41459,0.0381 0.39653,-0.0101 0.39647,1.05828 -1.5e-4,2.58155 -0.32956,6.30295 -0.86038,9.71975 -0.42205,2.71673 -1.06538,5.77588 -1.72545,8.20474 -0.0897,0.33017 -0.16313,0.6073 -0.16313,0.61585 0,0.009 0.48598,0.0156 1.07997,0.0156 1.21304,6e-5 1.27131,0.0105 1.39386,0.24985 0.0352,0.0687 1.37313,4.51049 2.97322,9.87059 2.08665,6.99001 2.90321,9.77317 2.88786,9.84303 -0.0304,0.13826 -0.15165,0.27972 -0.28906,0.33713 -0.099,0.0414 -1.51106,0.0492 -8.85766,0.0492 h -8.73984 l -0.49908,0.668 c -3.8473,5.14949 -8.45242,9.38635 -13.8773,12.76756 -0.54762,0.34132 -0.69298,0.41664 -0.80411,0.41664 -0.11258,0 -0.26907,-0.0837 -0.92026,-0.4924 z m 1.52138,-3.40315 c 2.43357,-1.49997 4.87293,-3.36583 6.96567,-5.32802 0.56869,-0.53322 1.9663,-1.93755 2.42135,-2.43299 0.42007,-0.45737 1.11195,-1.2492 1.52853,-1.74937 l 0.35682,-0.42842 -5.92341,-0.009 c -3.25788,-0.005 -8.59138,-0.005 -11.85222,0 l -5.92881,0.009 0.40165,0.48197 c 2.72347,3.26813 5.82757,6.08934 9.33172,8.48129 0.57714,0.39396 2.05224,1.33664 2.09156,1.33664 0.0117,0 0.28493,-0.1625 0.60714,-0.3611 z m -0.71727,-4.76208 v -4.33774 h 0.14281 0.14281 v 4.33774 4.33774 h -0.14281 -0.14281 z m -10.60336,-14.26277 v -4.6055 h 1.196 1.19601 v -1.14245 -1.14245 h -4.39129 -4.3913 v 1.14197 1.14197 l 1.18708,0.009 1.18708,0.009 0.009,4.59658 0.009,4.59657 h 1.99915 1.99915 z m 9.28421,4.56088 c 9.9e-4,-0.0245 0.0538,-0.48644 0.11745,-1.02642 l 0.11565,-0.9818 0.73939,-0.01 c 0.40666,-0.005 0.74001,-0.005 0.74079,0 7.7e-4,0.005 0.0468,0.46401 0.10226,1.01933 0.0555,0.55532 0.10852,1.01734 0.11789,1.02671 0.009,0.009 0.94052,0.0129 2.06923,0.008 l 2.05219,-0.009 -1.15219,-5.71225 c -0.6337,-3.14173 -1.153,-5.72429 -1.15399,-5.73902 -0.001,-0.0147 -1.31741,-0.0268 -2.92536,-0.0268 h -2.92356 l -0.0212,0.11603 c -0.0117,0.0638 -0.47129,2.61425 -1.02136,5.66762 -0.55008,3.05338 -1.00853,5.58774 -1.01878,5.63192 l -0.0186,0.0803 h 2.08923 c 1.64661,0 2.0896,-0.009 2.09102,-0.0446 z m 0.21241,-4.11045 c 0,-0.33258 0.70365,-4.62709 0.76913,-4.6942 0.0233,-0.0238 0.0482,0.14801 0.12348,0.85213 0.0983,0.91926 0.26154,2.21767 0.39328,3.1283 0.0586,0.40476 0.10647,0.75009 0.10647,0.7674 0,0.0173 -0.31328,0.0315 -0.69618,0.0315 h -0.69618 z m 12.60264,1.70741 c 0,-1.34622 0.0122,-2.44015 0.027,-2.43096 0.0149,0.009 0.38839,1.11022 0.83006,2.44674 l 0.80304,2.43003 2.07961,9.3e-4 c 1.14379,5.1e-4 2.07962,-0.0128 2.07962,-0.0296 0,-0.0168 -0.14296,-0.38227 -0.31769,-0.81221 -2.08229,-5.12374 -2.21921,-5.47596 -2.16761,-5.57637 0.0273,-0.0531 0.51155,-1.1327 1.07619,-2.39921 0.56463,-1.26651 1.06427,-2.3871 1.1103,-2.49018 l 0.0837,-0.18744 h -1.88489 -1.88489 l -0.25495,0.63371 c -0.9345,2.32274 -1.5169,3.74445 -1.54587,3.77365 -0.0211,0.0212 -0.0336,-0.79656 -0.0336,-2.18672 v -2.22064 h -1.99928 -1.99929 v 5.74795 5.74795 h 1.99929 1.99928 z m 10.86432,-14.05538 c 1.01136,-3.80143 1.72261,-7.80285 2.09254,-11.77259 0.14646,-1.57161 0.25258,-3.45712 0.25267,-4.48947 l 5e-5,-0.61585 -0.11603,-4e-5 c -0.0638,-3e-5 -0.33292,-0.0245 -0.598,-0.0545 -4.47822,-0.50608 -9.68489,-2.69051 -15.33382,-6.43321 -2.74081,-1.81593 -5.93316,-4.28801 -8.09247,-6.26662 -0.23036,-0.21108 -0.42906,-0.38379 -0.44156,-0.38379 -0.0125,0 -0.25828,0.21328 -0.5462,0.47396 -3.1061,2.8122 -7.09939,5.74978 -10.69843,7.8701 -4.69879,2.76822 -9.17652,4.42165 -12.90227,4.76425 l -0.47813,0.044 0.0241,0.89441 c 0.13618,5.05586 0.86874,10.24675 2.1491,15.22858 0.17226,0.67028 0.30591,1.16456 0.35477,1.31204 0.0118,0.0356 4.46197,0.0446 22.09231,0.0446 h 22.07753 z m -23.09678,-0.97869 c -0.46868,-0.30461 -0.87222,-0.57306 -0.89674,-0.59656 -0.0354,-0.0339 0.004,-0.16724 0.19134,-0.64841 0.32916,-0.84498 0.34158,-0.88147 0.28951,-0.85006 -0.024,0.0145 -0.32289,0.23335 -0.66432,0.48642 -0.34142,0.25308 -0.64088,0.46787 -0.66546,0.4773 -0.0284,0.0109 -0.26859,-0.37458 -0.65939,-1.05832 -0.33809,-0.59151 -0.60862,-1.08156 -0.60117,-1.08901 0.007,-0.007 0.2863,0.0109 0.61968,0.0408 0.41883,0.0376 1.25965,0.0602 2.72072,0.0732 2.05046,0.0183 3.12161,-0.008 4.02137,-0.0997 0.19376,-0.0197 0.35719,-0.0309 0.36319,-0.0249 0.0204,0.0204 -1.21513,2.16804 -1.24794,2.16922 -0.0179,6.5e-4 -0.34236,-0.23122 -0.7209,-0.51527 l -0.68825,-0.51646 0.0841,0.22192 c 0.0463,0.12206 0.17389,0.45209 0.28356,0.7334 0.10967,0.28132 0.19931,0.53033 0.19921,0.55337 -1.6e-4,0.0371 -0.22124,0.18724 -1.46431,0.99423 l -0.31209,0.2026 z m -1.56619,-3.78413 c -0.0785,-0.006 -0.37575,-0.0283 -0.66047,-0.049 -2.2451,-0.16303 -4.47841,-0.63138 -6.46717,-1.35623 -0.77798,-0.28356 -1.91644,-0.79513 -1.97294,-0.88655 -0.0378,-0.0612 0.66146,-0.11799 1.47086,-0.11938 l 0.81073,-0.001 -0.46182,-0.0863 c -1.53715,-0.28707 -2.71113,-0.72494 -3.67921,-1.37228 -0.4465,-0.29857 -0.96178,-0.78985 -1.2228,-1.16585 -0.18549,-0.2672 -0.39445,-0.70699 -0.35477,-0.74667 0.0315,-0.0315 0.76154,0.0438 1.64862,0.17004 0.62682,0.0892 3.66511,0.5872 4.00273,0.65604 0.0566,0.0115 -0.11394,-0.0571 -0.37902,-0.15264 -3.49494,-1.259 -5.87368,-2.88964 -7.195,-4.93218 -0.21281,-0.32898 -0.52307,-0.97675 -0.63857,-1.33325 -0.0983,-0.30355 -0.15805,-0.65421 -0.10642,-0.62501 0.0177,0.01 0.28662,0.1743 0.5977,0.36516 1.83436,1.12537 3.73135,2.07069 4.98599,2.48463 0.75128,0.24787 1.22605,0.34187 3.24378,0.64218 2.29027,0.34089 3.45801,0.61855 4.34843,1.03398 0.73478,0.3428 1.21328,0.7774 1.40303,1.27429 l 0.0569,0.1489 0.78149,-1.89828 c 0.42982,-1.04405 0.83669,-2.03082 0.90415,-2.19282 l 0.12266,-0.29454 1.93324,7.9e-4 c 1.86798,7.6e-4 1.93866,0.003 2.09389,0.0735 0.32167,0.14568 0.60814,0.55502 0.78134,1.11651 0.0415,0.13461 0.0755,0.25085 0.0755,0.25831 0,0.007 -0.47964,0.0178 -1.06586,0.023 l -1.06586,0.009 0.69737,1.43699 c 0.38355,0.79034 0.70929,1.43698 0.72386,1.43698 0.0146,0 0.0369,-0.0474 0.0496,-0.10536 0.068,-0.30959 0.51643,-0.78985 1.00525,-1.07662 0.95478,-0.5601 2.1257,-0.8582 5.1001,-1.29839 2.2074,-0.32668 2.83043,-0.49069 4.21932,-1.11074 1.05013,-0.46881 2.07635,-1.01596 3.41777,-1.82227 0.46958,-0.28227 0.86018,-0.50682 0.86798,-0.49902 0.008,0.008 -0.0179,0.14927 -0.0571,0.31436 -0.29005,1.22123 -1.21184,2.5522 -2.53949,3.66671 -1.29532,1.08738 -3.0721,2.06493 -5.06951,2.78915 -0.6561,0.23788 -0.69628,0.25547 -0.53552,0.23439 0.0687,-0.009 0.74349,-0.12133 1.49947,-0.24959 1.86302,-0.31607 3.54889,-0.55681 3.90039,-0.55696 0.13609,-6e-5 0.12829,0.0807 -0.039,0.40398 -0.18166,0.35104 -0.39365,0.62045 -0.77772,0.98837 -0.99226,0.95054 -2.52081,1.59613 -4.63671,1.95834 -0.125,0.0214 0.0736,0.0313 0.66248,0.0331 0.88799,0.003 1.53336,0.0596 1.45879,0.12872 -0.0674,0.0624 -0.98681,0.4877 -1.4613,0.67592 -2.19437,0.87048 -4.61785,1.3921 -7.40757,1.59437 -0.44026,0.0319 -4.6972,0.0429 -5.06962,0.0131 z m 2.30275,-18.25576 v -6.28347 h 0.14281 0.14281 v 6.28347 6.28348 h -0.14281 -0.14281 z"
         id="path294" /></g></g></svg>
